<svg xmlns="http://www.w3.org/2000/svg" viewBox="0 0 64 64" fill="none">
  <rect x="8" y="8" width="48" height="48" rx="16" fill="currentColor" fill-opacity=".1"/>
  <path d="M20 38.5c0 3.3 2.9 5.5 7.2 5.5 3.7 0 6.3-1.7 6.3-4.4 0-2.2-1.6-3.5-5.5-4.5l-3.3-.8c-5-1.2-7.4-3.8-7.4-7.7 0-5.1 4.4-8.7 10.8-8.7 6.3 0 10.4 3.4 10.5 8.7h-5.6c-.1-3-2.1-4.8-5.2-4.8-3.1 0-5.3 1.7-5.3 4.2 0 2 1.5 3.2 5.1 4.1l2.8.7c5.6 1.3 8.2 3.8 8.2 8 0 5.6-4.4 9.1-11.5 9.1-6.7 0-11-3.4-11.2-8.9H20Z" fill="currentColor"/>
</svg>
